<svg xmlns="http://www.w3.org/2000/svg" version="1.1" id="Layer_1" x="0px" y="0px"
     viewBox="-0.39385786652565 0 1474.7877197265625 654.9000244140625" style="enable-background:new 0 0 1474 654.9;"
     xml:space="preserve" width="100%" height="100%"><rect id="svgEditorBackground" x="0" y="0" width="1474" height="654.9000244140625" style="fill:none; stroke: none;"/>
    <defs id="svgEditorDefs"><path id="svgEditorClosePathDefs" style="stroke:black;stroke-width:1px;fill:rosybrown;"/></defs>
    <style type="text/css">
	.st1{fill:none;stroke:#007BFF;stroke-width:4;stroke-linecap:round;stroke-linejoin:round;stroke-miterlimit:10;}
	.st2{fill:#082E51;}
	.st3{fill:none;stroke:#082E51;stroke-width:4;stroke-linecap:round;stroke-linejoin:round;stroke-miterlimit:10;}
</style>
    <path d="M1296.6,4419.1c6.2,0.8,12.5,1.7,18.7,2.5c-0.1,0.6-0.1,1.1-0.2,1.7c-6.3-0.6-12.5-1.3-18.8-1.9  C1296.5,4420.5,1296.6,4419.8,1296.6,4419.1z"/>
    <g>
	<path class="st1"
          d="M1036.3,228H50.8c-15,0-27.1-12.1-27.1-27.1V68c0-15,12.1-27.1,27.1-27.1h985.7c15,0,27.1,12.1,27.1,27.1   v132.9C1063.4,215.9,1051.3,228,1036.3,228z"/>
        <path class="st1"
              d="M1036.3,415.9H50.8c-15,0,-27.1,-12.1,-27.1,-27.1v-133c0,-15,12.1,-27.1,27.1,-27.1h985.7c15,0,27.1,12.1,27.1,27.1v132.9C1063.4,403.8,1051.3,415.9,1036.3,415.9Z"/>
        <path class="st1"
              d="M1036.3,603.7H50.8c-15,0-27.1-12.1-27.1-27.1V443.7c0-15,12.1-27.1,27.1-27.1h985.7c15,0,27.1,12.1,27.1,27.1   v132.9C1063.4,591.6,1051.3,603.7,1036.3,603.7z"/>
</g>
    <g>














</g>

    <g>












</g>
    <g>
	<path class="st2"
          d="M1238.7,268.3c9.2,2,15.3,6.7,15.3,17.2c0,9.6-7.7,18.2-23.1,18.2c-14.3,0-23.6-7.5-24.6-18.2h7.8   c1.4,8.3,8.7,11.1,17.1,11.1c8.5,0,15-3.9,15-11c0-6.6-4.4-9.1-10.4-10.5c-3.1-0.7-9.1-1.8-12.1-2.5c-8.9-1.8-14.8-6.6-14.8-15.5   c0-9.5,7.7-17,21.5-17c12.7,0,20.8,6.7,22.2,16.5h-7.8c-1.4-6.1-5.7-9.5-14.6-9.5c-7.4,0-13.6,3.3-13.6,9.8c0,5.9,5.2,7.8,10.4,8.9   C1229.7,266.4,1235.5,267.6,1238.7,268.3z"/>
        <path class="st2"
              d="M1286.9,259.4v6.4h-10.8v23.7c0,4.4,1.9,6.6,7.7,6.6h3.2v6.5h-3.3c-9.3,0-14.8-2.9-14.8-12.1v-24.8h-7.4v-6.4   h7.4v-13h7.3v13H1286.9z"/>
        <path class="st2"
              d="M1326.4,298h-1.9c-2.7,3.3-7.3,5.7-13.4,5.7c-9.9,0-15.5-6.7-15.5-14c0-7,4.5-14.3,16.5-14.3h14v-1.7   c0-5.2-3-9-10.5-9c-6.4,0-9.7,2.5-10,6.2h-7.3c0.6-8,7.4-12.6,17.1-12.6c10.8,0,17.8,5.2,17.8,14.9v29.4h-6.8V298L1326.4,298z    M1326.2,285.1v-3.9h-13c-7.1,0-10.4,3.1-10.4,8.2c0,4.9,3.6,8,10,8C1320.1,297.3,1326.2,291.9,1326.2,285.1z"/>
        <path class="st2"
              d="M1383.1,289.5c-1.6,8.5-8.1,14.1-18.2,14.1c-13.4,0-21-9.9-21-22.7c0-13,7.5-22.7,21-22.7   c10.3,0,16.4,5.7,17.9,13.6h-7.3c-1.4-4.4-4.7-7.3-10.6-7.3c-9.8,0-13.7,7.7-13.7,16.2c0,8.6,4,16.5,13.7,16.5   c6.1,0,9.8-3,10.9-7.8L1383.1,289.5L1383.1,289.5z"/>
        <path class="st2"
              d="M1425.4,302.5l-12.4-23.5h-1.9l-9.9,11v12.5h-7.3v-62.2h7.3v40.8l20.4-21.7h8.6l-12.4,13.3l15.3,29.9   L1425.4,302.5L1425.4,302.5z"/>
        <path class="st2" d="M1209.2,341v19.9h28.3v7h-28.3v27.2h-7.7V334h42.7v7H1209.2z"/>
        <path class="st2"
              d="M1277.5,358.8h-3.6c-8.6,0-13.8,5.2-13.8,14.7v21.6h-7.3V352h7v5.2h1.9c2.1-2.7,6.2-5.2,12.5-5.2h3.3   L1277.5,358.8L1277.5,358.8z"/>
        <path class="st2"
              d="M1314.4,390.6h-1.9c-2.7,3.3-7.3,5.7-13.4,5.7c-9.9,0-15.5-6.7-15.5-14c0-7,4.5-14.3,16.5-14.3h14v-1.7   c0-5.2-3-9-10.5-9c-6.4,0-9.7,2.5-10,6.2h-7.3c0.6-8,7.4-12.6,17.1-12.6c10.9,0,17.8,5.2,17.8,14.9v29.4h-6.8V390.6L1314.4,390.6z    M1314.2,377.7v-3.9h-13c-7.1,0-10.4,3.1-10.4,8.2c0,4.9,3.6,8,10,8C1308.1,389.9,1314.2,384.5,1314.2,377.7z"/>
        <path class="st2"
              d="M1394.2,367.2v27.9h-7.3V368c0-7.1-2.7-10.6-8.3-10.6c-6.7,0-10.5,5.2-10.5,12.5v25.2h-7.3v-27   c0-7.1-2.8-10.8-8.2-10.8c-7.2,0-10.6,6.1-10.6,13.9v23.9h-7.3V352h7v4.2h1.9c2.1-3.3,5.5-5.3,11-5.3c5.2,0,9.1,1.9,11.4,5.8h1.9   c2.7-3.9,6.7-5.8,12.1-5.8C1389.9,350.9,1394.2,357.3,1394.2,367.2z"/>
        <path class="st2"
              d="M1445,373.5h-32.9c0.2,10.3,4.9,16.4,13.8,16.4c6.1,0,9.7-2.6,11-6.7h7.4c-1.4,7.4-7.7,13-18.3,13   c-13.4,0-21-9.9-21-23.1s7.7-22.3,20.8-22.3c12.8,0,19,9.5,19.3,20.2V373.5z M1412.5,367.4h24.9c-0.5-5.5-4.6-10.2-11.9-10.2   C1417.7,357.2,1413.4,361.9,1412.5,367.4z"/>
</g>
    <polyline class="st3" points="1081,78.4 1170.3,78.4 1170.3,558.1 1081,558.1 "/>
    <g>
	
</g>
    <text style="fill: rgb(8, 46, 81); font-family: Arial; font-size:82px;" x="276.54998779296875" y="348.494873046875"
          id="e4_texte" xml:space="preserve">function name</text>
    <text dy="-0.5em" style="fill:black;font-family:Arial;font-size:20px;" id="e3_text"/>
    <text style="fill: rgb(8, 46, 81); font-family: Arial; font-size:82px;" x="199.10647583007812"
          y="156.57061767578125" id="e1_texte" xml:space="preserve">function local vars</text>
    <text style="fill: rgb(8, 46, 81); font-family: Arial; font-size:82px;" x="244.56227111816406" y="529.4759521484375"
          id="e2_texte" xml:space="preserve">function params</text></svg>