<svg width="1442" height="445" viewBox="0 0 1442 445" fill="none" xmlns="http://www.w3.org/2000/svg">
<rect width="1440.3" height="443.2" fill="black" fill-opacity="0" transform="translate(1 1)"/>
<rect width="1440.3" height="443.2" fill="black" fill-opacity="0" transform="translate(1 1)"/>
<path opacity="0.12" d="M297.8 207.2H33.8C24.6 207.2 17.1 199.7 17.1 190.5V35.9C17.1 26.7 24.6 19.2 33.8 19.2H297.8C307 19.2 314.5 26.7 314.5 35.9V190.5C314.5 199.7 307 207.2 297.8 207.2Z" fill="#007BFF"/>
<path opacity="0.12" d="M297.8 427.4H33.8C24.6 427.4 17.1 419.9 17.1 410.7V256.1C17.1 246.9 24.6 239.4 33.8 239.4H297.8C307 239.4 314.5 246.9 314.5 256.1V410.7C314.5 419.9 307 427.4 297.8 427.4Z" fill="#007BFF"/>
<path d="M333.4 222.6H1V444.2H333.4V222.6Z" stroke="#007BFF" stroke-miterlimit="10"/>
<path d="M555 222.6H333.4V444.2H555V222.6Z" stroke="#007BFF" stroke-miterlimit="10"/>
<path d="M776.5 222.6H554.9V444.2H776.5V222.6Z" stroke="#007BFF" stroke-miterlimit="10"/>
<path d="M998.1 222.6H776.5V444.2H998.1V222.6Z" stroke="#007BFF" stroke-miterlimit="10"/>
<path d="M1219.7 222.6H998.1V444.2H1219.7V222.6Z" stroke="#007BFF" stroke-miterlimit="10"/>
<path d="M333.4 1H1V222.6H333.4V1Z" stroke="#007BFF" stroke-miterlimit="10"/>
<path d="M555 1H333.4V222.6H555V1Z" stroke="#007BFF" stroke-miterlimit="10"/>
<path d="M776.5 1H554.9V222.6H776.5V1Z" stroke="#007BFF" stroke-miterlimit="10"/>
<path d="M998.1 1H776.5V222.6H998.1V1Z" stroke="#007BFF" stroke-miterlimit="10"/>
<path d="M1219.7 1H998.1V222.6H1219.7V1Z" stroke="#007BFF" stroke-miterlimit="10"/>
<path d="M1441.3 222.6H1219.7V444.2H1441.3V222.6Z" stroke="#007BFF" stroke-miterlimit="10"/>
<path d="M1441.3 1H1219.7V222.6H1441.3V1Z" stroke="#007BFF" stroke-miterlimit="10"/>
<path d="M394.186 352H416.164V347.788H407.902V314.2H402.016L394.132 319.546V324.514L402.07 319.168H403.15V347.788H394.186V352ZM435.059 313.444C427.067 313.444 421.181 319.492 421.181 333.1C421.181 346.708 427.067 352.702 435.059 352.702C443.051 352.702 448.991 346.708 448.991 333.1C448.991 319.492 443.051 313.444 435.059 313.444ZM435.059 348.49C428.795 348.49 425.933 342.442 425.933 333.1C425.933 323.704 428.795 317.656 435.059 317.656C441.377 317.656 444.239 323.704 444.239 333.1C444.239 342.442 441.377 348.49 435.059 348.49ZM459.784 352V345.736H454.168V352H459.784ZM488.178 331.48C490.122 330.616 492.93 327.754 492.93 323.542C492.93 317.548 487.746 313.444 480.402 313.444C473.058 313.444 467.874 317.548 467.874 323.542C467.874 327.862 470.628 330.616 472.626 331.48V332.668C470.088 333.532 466.74 336.718 466.74 341.686C466.74 347.95 472.086 352.702 480.402 352.702C488.718 352.702 494.064 347.95 494.064 341.686C494.064 336.664 490.662 333.532 488.178 332.668V331.48ZM480.402 317.548C484.722 317.548 488.286 319.708 488.286 323.758C488.286 327.808 484.722 330.022 480.402 330.022C476.082 330.022 472.518 327.808 472.518 323.758C472.518 319.708 476.082 317.548 480.402 317.548ZM480.402 348.49C474.84 348.49 471.438 345.628 471.438 341.254C471.438 336.772 474.84 334.126 480.402 334.126C485.964 334.126 489.366 336.772 489.366 341.254C489.366 345.628 485.964 348.49 480.402 348.49Z" fill="black"/>
<path d="M617.186 352H639.164V347.788H630.902V314.2H625.016L617.132 319.546V324.514L625.07 319.168H626.15V347.788H617.186V352ZM666.645 338.932V314.2H660.003L643.317 337.744V343.144H662.001V352H666.645V343.144H671.829V338.932H666.645ZM648.285 338.932V337.744L660.867 319.546H662.055V338.932H648.285ZM683.311 352V345.736H677.695V352H683.311ZM691.725 314.2V318.304H708.249V319.492L699.015 327.484V332.506C699.879 332.29 700.959 332.182 702.309 332.182C707.871 332.182 710.841 335.26 710.841 340.228C710.841 345.412 707.439 348.49 702.255 348.49C697.719 348.49 694.209 345.736 693.777 341.416H689.025C689.457 347.842 694.587 352.702 702.255 352.702C709.977 352.702 715.593 348.058 715.593 340.228C715.593 332.938 710.841 328.888 704.361 328.726V327.592L713.811 319.492V314.2H691.725Z" fill="black"/>
<path d="M830.186 352H852.164V347.788H843.902V314.2H838.016L830.132 319.546V324.514L838.07 319.168H839.15V347.788H830.186V352ZM858.477 314.2V318.304H875.001V319.492L865.767 327.484V332.506C866.631 332.29 867.711 332.182 869.061 332.182C874.623 332.182 877.593 335.26 877.593 340.228C877.593 345.412 874.191 348.49 869.007 348.49C864.471 348.49 860.961 345.736 860.529 341.416H855.777C856.209 347.842 861.339 352.702 869.007 352.702C876.729 352.702 882.345 348.058 882.345 340.228C882.345 332.938 877.593 328.888 871.113 328.726V327.592L880.563 319.492V314.2H858.477ZM893.938 352V345.736H888.322V352H893.938ZM915.204 326.566C911.694 326.566 909.642 327.646 907.914 329.212H906.726L907.59 318.304H925.356V314.2H903.756L902.082 334.126H906.834C908.454 331.75 910.938 330.562 914.34 330.562C919.416 330.562 922.602 334.234 922.602 339.418C922.602 345.034 919.2 348.49 914.178 348.49C909.588 348.49 906.51 346.114 905.916 341.416H901.218C901.65 347.788 906.078 352.702 914.394 352.702C922.062 352.702 927.354 347.41 927.354 339.202C927.354 332.182 922.764 326.566 915.204 326.566Z" fill="black"/>
<path d="M1062.19 352H1084.16V347.788H1075.9V314.2H1070.02L1062.13 319.546V324.514L1070.07 319.168H1071.15V347.788H1062.19V352ZM1093.82 324.622C1094.31 319.87 1097.28 317.656 1101.55 317.656C1106.14 317.656 1109.16 320.194 1109.16 324.946C1109.16 329.428 1105.87 332.506 1103.27 334.828C1101.28 336.664 1097.71 339.688 1094.69 342.118L1089.13 346.654V352H1115.1V347.788H1096.04V346.6L1105.54 338.608C1110.02 334.882 1113.91 330.076 1113.91 324.946C1113.91 317.386 1108.73 313.444 1101.65 313.444C1094.96 313.444 1089.5 317.062 1089.07 324.622H1093.82ZM1127.41 352V345.736H1121.8V352H1127.41ZM1134.75 352H1156.73V347.788H1148.46V314.2H1142.58L1134.69 319.546V324.514L1142.63 319.168H1143.71V347.788H1134.75V352Z" fill="black"/>
<path d="M1308.42 338.77C1312.95 338.77 1315.98 336.664 1317.27 335.098H1318.46C1318.19 343.36 1314.74 348.49 1308.69 348.49C1305.02 348.49 1302.96 346.87 1302.05 343.684H1297.35C1298.21 348.868 1302.26 352.702 1308.69 352.702C1318.57 352.702 1323.05 343.522 1323.05 332.02C1323.05 318.412 1317.22 313.444 1309.17 313.444C1301.13 313.444 1296.32 319.276 1296.32 326.458C1296.32 333.64 1301.51 338.77 1308.42 338.77ZM1309.23 317.656C1313.82 317.656 1317.54 320.788 1317.54 326.296C1317.54 331.696 1313.87 334.612 1309.34 334.612C1304.75 334.612 1301.07 331.858 1301.07 326.242C1301.07 320.626 1304.64 317.656 1309.23 317.656ZM1333.83 352V345.736H1328.22V352H1333.83ZM1363.66 319.492V314.2H1339.57V318.304H1358.74V319.492L1342.33 352H1347.29L1363.66 319.492Z" fill="black"/>
<path d="M88.238 107.444V146H93.098V107.444H88.238ZM126.966 146V128.72C126.966 122.186 123.294 118.082 116.598 118.082C112.926 118.082 109.902 119.594 108.39 121.7H107.202V118.784H102.774V146H107.364V131.258C107.364 126.452 110.604 122.186 115.464 122.186C120.054 122.186 122.376 124.67 122.376 129.692V146H126.966ZM155.128 106.742V121.7H153.94C152.428 119.756 149.944 118.082 145.624 118.082C138.118 118.082 133.69 124.184 133.69 132.392C133.69 140.438 138.118 146.702 145.624 146.702C149.944 146.702 152.59 144.974 154.102 143.084H155.29V146H159.718V106.742H155.128ZM146.65 142.706C141.196 142.706 138.28 138.44 138.28 132.392C138.28 126.344 141.196 122.078 146.65 122.078C152.698 122.078 155.182 127.046 155.182 132.392C155.182 137.738 152.698 142.706 146.65 142.706ZM192.184 130.772C192.022 124.076 188.134 118.082 180.034 118.082C171.772 118.082 166.912 123.752 166.912 132.122C166.912 140.492 171.664 146.702 180.142 146.702C186.892 146.702 190.834 143.138 191.698 138.494H187.054C186.244 141.086 183.976 142.706 180.142 142.706C174.526 142.706 171.61 138.818 171.448 132.338H192.184V130.772ZM179.926 122.078C184.516 122.078 187.162 125.048 187.432 128.504H171.718C172.312 125.048 175.012 122.078 179.926 122.078ZM216.737 146H221.921L213.497 131.906L221.219 118.784H216.413L210.041 129.584H208.097L201.833 118.784H196.973L204.587 132.068L196.109 146H201.131L208.043 134.606H209.987L216.737 146Z" fill="black"/>
<path d="M68.774 344.572V331.234H86.486V326.806H68.774V314.872H90.752V310.444H63.914V349H91.616V344.572H68.774ZM98.6546 309.742V349H103.245V309.742H98.6546ZM135.7 333.772C135.538 327.076 131.65 321.082 123.55 321.082C115.288 321.082 110.428 326.752 110.428 335.122C110.428 343.492 115.18 349.702 123.658 349.702C130.408 349.702 134.35 346.138 135.214 341.494H130.57C129.76 344.086 127.492 345.706 123.658 345.706C118.042 345.706 115.126 341.818 114.964 335.338H135.7V333.772ZM123.442 325.078C128.032 325.078 130.678 328.048 130.948 331.504H115.234C115.828 328.048 118.528 325.078 123.442 325.078ZM171.412 321.082C168.01 321.082 165.418 322.27 163.744 324.7H162.556C161.098 322.27 158.668 321.082 155.374 321.082C151.918 321.082 149.812 322.324 148.462 324.43H147.274V321.784H142.846V349H147.436V333.934C147.436 329.02 149.596 325.186 154.132 325.186C157.534 325.186 159.316 327.508 159.316 331.99V349H163.906V333.07C163.906 328.48 166.282 325.186 170.548 325.186C174.058 325.186 175.786 327.4 175.786 331.882V349H180.376V331.396C180.376 325.132 177.676 321.082 171.412 321.082ZM212.376 333.772C212.214 327.076 208.326 321.082 200.226 321.082C191.964 321.082 187.104 326.752 187.104 335.122C187.104 343.492 191.856 349.702 200.334 349.702C207.084 349.702 211.026 346.138 211.89 341.494H207.246C206.436 344.086 204.168 345.706 200.334 345.706C194.718 345.706 191.802 341.818 191.64 335.338H212.376V333.772ZM200.118 325.078C204.708 325.078 207.354 328.048 207.624 331.504H191.91C192.504 328.048 195.204 325.078 200.118 325.078ZM243.714 349V331.72C243.714 325.186 240.042 321.082 233.346 321.082C229.674 321.082 226.65 322.594 225.138 324.7H223.95V321.784H219.522V349H224.112V334.258C224.112 329.452 227.352 325.186 232.212 325.186C236.802 325.186 239.124 327.67 239.124 332.692V349H243.714ZM258.43 321.784V313.576H253.84V321.784H249.142V325.78H253.84V341.386C253.84 347.164 257.296 349 263.182 349H265.288V344.896H263.29C259.618 344.896 258.43 343.492 258.43 340.738V325.78H265.288V321.784H258.43Z" fill="black"/>
<path d="M450.848 107.444C442.856 107.444 436.97 113.492 436.97 127.1C436.97 140.708 442.856 146.702 450.848 146.702C458.84 146.702 464.78 140.708 464.78 127.1C464.78 113.492 458.84 107.444 450.848 107.444ZM450.848 142.49C444.584 142.49 441.722 136.442 441.722 127.1C441.722 117.704 444.584 111.656 450.848 111.656C457.166 111.656 460.028 117.704 460.028 127.1C460.028 136.442 457.166 142.49 450.848 142.49Z" fill="black"/>
<path d="M640.186 146H662.164V141.788H653.902V108.2H648.016L640.132 113.546V118.514L648.07 113.168H649.15V141.788H640.186V146Z" fill="black"/>
<path d="M870.614 118.622C871.1 113.87 874.07 111.656 878.336 111.656C882.926 111.656 885.95 114.194 885.95 118.946C885.95 123.428 882.656 126.506 880.064 128.828C878.066 130.664 874.502 133.688 871.478 136.118L865.916 140.654V146H891.89V141.788H872.828V140.6L882.332 132.608C886.814 128.882 890.702 124.076 890.702 118.946C890.702 111.386 885.518 107.444 878.444 107.444C871.748 107.444 866.294 111.062 865.862 118.622H870.614Z" fill="black"/>
<path d="M1091.27 108.2V112.304H1107.79V113.492L1098.56 121.484V126.506C1099.42 126.29 1100.5 126.182 1101.85 126.182C1107.41 126.182 1110.38 129.26 1110.38 134.228C1110.38 139.412 1106.98 142.49 1101.8 142.49C1097.26 142.49 1093.75 139.736 1093.32 135.416H1088.57C1089 141.842 1094.13 146.702 1101.8 146.702C1109.52 146.702 1115.13 142.058 1115.13 134.228C1115.13 126.938 1110.38 122.888 1103.9 122.726V121.592L1113.35 113.492V108.2H1091.27Z" fill="black"/>
<path d="M1336.43 132.932V108.2H1329.79L1313.11 131.744V137.144H1331.79V146H1336.43V137.144H1341.62V132.932H1336.43ZM1318.07 132.932V131.744L1330.66 113.546H1331.84V132.932H1318.07Z" fill="black"/>
</svg>
